<svg xmlns="http://www.w3.org/2000/svg" viewBox="0 0 111.82 13.34"><defs><style>.cls-1{isolation:isolate}.cls-2{fill:#efefef}</style></defs><g id="Layer_2" data-name="Layer 2"><g id="Layer_1-2" data-name="Layer 1"><g id="Group_28" data-name="Group 28"><g id="Group_1" data-name="Group 1"><g class="cls-1 cls-1" id="brandle"><path class="cls-2" d="M0 0h5.42a6.53 6.53 0 0 1 3.5.68 3.16 3.16 0 0 1 1.52 2.72 2.92 2.92 0 0 1-1.88 2.8 3.31 3.31 0 0 1 2.2 3.26 3.65 3.65 0 0 1-1.38 3c-.86.66-1.8.88-3.7.88H0zm5.8 5.18c1.08 0 1.64-.44 1.64-1.32s-.56-1.3-1.64-1.3H2.94v2.62zm0 5.6c1.26 0 1.94-.56 1.94-1.62S7 7.54 5.76 7.54H2.94v3.24zM20 13.34h-3V0h5.82a5.52 5.52 0 0 1 3.48.8 3.35 3.35 0 0 1 1.3 2.8 3.12 3.12 0 0 1-2.22 3.22c1.32.42 1.78 1.12 1.88 2.88l.1 1.9a2.82 2.82 0 0 0 .54 1.74H25c-.36-.28-.46-.48-.5-1.16l-.12-1.82C24.22 8.72 23.5 8 22 8h-2zm2.94-7.7c1.1 0 1.7-.56 1.7-1.54S24 2.56 22.9 2.56H20v3.08zM37.18 10.66l-.84 2.68h-3.26L37.74 0h3.74l4.24 13.34h-3.4l-.72-2.68zM39.54 3l-1.62 5.2h3zM59 13.34l-3.8-6.82-1.38-2.6v9.42h-2.68V0h3.12l3.68 6.64c.52 1 .86 1.7 1.36 2.7V0H62v13.34zM68.8 0h4.52c2.7 0 4.12.48 5.32 1.84a7.12 7.12 0 0 1 1.64 4.76 7.42 7.42 0 0 1-1.74 5c-1.16 1.24-2.64 1.76-5.12 1.76H68.8zm5 10.78a2.82 2.82 0 0 0 2.74-1.3 5.4 5.4 0 0 0 .66-2.82 5.32 5.32 0 0 0-.64-2.76A2.65 2.65 0 0 0 74 2.56h-2.2v8.22zM89.56 10.78h6.52v2.56h-9.52V0h3zM111.7 2.56h-6.94v2.6h6.06v2.36h-6.06v3.26h7.06v2.56h-10.06V0h9.94z"/></g></g></g></g></g></svg>