<svg xmlns="http://www.w3.org/2000/svg" viewBox="0 0 983.67 1012.85"><defs><style>.cls-1{opacity:0.1;}.cls-2{fill:none;stroke:#efefef;stroke-miterlimit:10;}</style></defs><g id="Layer_2" data-name="Layer 2"><g id="Layer_1-2" data-name="Layer 1"><g id="Group_19" data-name="Group 19" class="cls-1"><g id="Group_16" data-name="Group 16"><path id="Path_3" data-name="Path 3" class="cls-2" d="M280.87,227a151.83,151.83,0,0,0-49.23,43.8c-29.52,40.77-42.57,90.94-72.23,131.67-26.19,36-62.08,64.8-96.57,92.36C21.39,528-10,575.23,3.83,629.94c13.43,52.95,59.6,83.93,111.13,92.81,47.29,8.16,92.4-3,131.79-30.11,39.93-27.44,71.58-65.7,107.85-97.47s75.55-60.94,119.93-80.6C532,489.15,602.28,465,627,401.15c12.29-31.81,7.46-67.76-14.07-94.37-29.77-36.77-74.7-51.85-117.6-67.54C428,214.64,348,189.63,280.87,227Z"/><path id="Path_4" data-name="Path 4" class="cls-2" d="M293.17,253.72a132.79,132.79,0,0,0-42.24,37.37c-25.5,34.66-37.24,77.22-62.74,112-22.56,30.69-53.23,55.39-82.5,79.21-36.19,29.46-63.07,70.88-52,118.13s51.12,75.68,96.87,83.36a152,152,0,0,0,33.07,1.88c29.39-1.57,57.83-11.7,83.78-29.29,34.35-23.48,61.84-56.06,93.12-83.31,23.23-20.23,47.74-39.25,74.3-54.78q13.92-8.16,28.61-14.9c49.18-22.52,108.87-44.06,130-98.77,10.94-28.26,7-60-12-83.94-25.8-32.43-64.66-45.87-102-59.17-8-2.85-16.23-5.67-24.61-8.34C402.26,236.25,343.65,225.37,293.17,253.72Z"/><path id="Path_5" data-name="Path 5" class="cls-2" d="M305.47,280.44a114.11,114.11,0,0,0-35.26,30.94c-21.47,28.55-31.89,63.5-53.25,92.23-18.93,25.43-44.36,46-68.41,66.06-30.93,25.8-53.3,61.4-45,101.16,8.73,41.59,42.63,67.43,82.62,73.89a126.08,126.08,0,0,0,28.85,1.3c25.12-1.73,50.09-10.58,73-26,28.86-19.39,52.1-46.41,78.4-69.14,19.52-16.87,40-32.82,62.12-46,7.72-4.62,15.64-8.9,23.77-12.76,40.94-19.61,90-38.58,107.64-84.13,9.61-24.7,6.55-52.33-9.84-73.52-21.76-28.14-54.62-39.89-86.45-50.78-6.84-2.34-13.87-4.6-21-6.74C398.11,263.63,348.47,256,305.47,280.44Z"/><path id="Path_6" data-name="Path 6" class="cls-2" d="M317.77,307.16a96.35,96.35,0,0,0-28.28,24.51c-17.44,22.44-26.55,49.78-43.76,72.51-15.29,20.16-35.47,36.63-54.33,52.91-25.65,22.15-43.6,51.94-37.92,84.19,6.33,35.94,34.15,59.16,68.36,64.42a101.2,101.2,0,0,0,24.65.71c20.86-1.87,42.32-9.52,62.31-22.72,23.3-15.39,42.36-36.76,63.68-55,15.8-13.5,32.32-26.38,49.94-37.23q9.25-5.7,18.92-10.61c32.74-16.61,71.1-33.09,85.24-69.48,8.28-21.15,6.09-44.61-7.71-63.09-17.79-23.81-44.59-33.91-70.88-42.42-5.67-1.82-11.5-3.53-17.42-5.12C394,291,353.36,286.76,317.77,307.16Z"/><path id="Path_7" data-name="Path 7" class="cls-2" d="M330.07,333.87A79.5,79.5,0,0,0,308.78,352c-13.42,16.33-21.21,36.06-34.28,52.79-11.66,14.89-26.56,27.29-40.25,39.76-20.36,18.54-34,42.52-30.89,67.22,3.85,30.33,25.66,50.9,54.1,54.95a78.14,78.14,0,0,0,20.44.13c16.59-2,34.54-8.48,51.58-19.43,17.73-11.41,32.61-27.13,48.95-40.82A387,387,0,0,1,416.2,478.1q6.92-4.49,14.07-8.46c24.52-13.7,52.22-27.61,62.85-54.84,6.93-17.6,5.6-36.88-5.6-52.67-13.82-19.46-34.55-27.92-55.3-34-4.5-1.32-9.13-2.48-13.83-3.52C389.85,318.26,358.19,317.42,330.07,333.87Z"/><path id="Path_8" data-name="Path 8" class="cls-2" d="M342.37,360.59a65.88,65.88,0,0,0-14.31,11.67c-9.4,10.21-15.87,22.33-24.79,33.07-8,9.62-17.59,18-26.17,26.61-15,15-24.64,33.13-23.85,50.24,1.14,24.78,17.17,42.65,39.85,45.48a55.83,55.83,0,0,0,16.22-.45c12.33-2.07,26.74-7.46,40.84-16.15,12.14-7.47,22.88-17.47,34.23-26.65,8.39-6.77,16.91-13.51,25.6-19.69,3.06-2.18,6.14-4.27,9.23-6.32,16.27-10.79,33.33-22.12,40.45-40.19,5.59-14,5.1-29.12-3.49-42.24-9.88-15.09-24.5-21.94-39.72-25.66-3.33-.8-6.75-1.42-10.23-1.91C385.73,345.52,363,348.05,342.37,360.59Z"/><path id="Path_9" data-name="Path 9" class="cls-2" d="M303.13,452.63c-2.82,23.42,14.21,40.93,37.61,35,8.08-2.06,18.86-6.58,30.1-12.86a179.93,179.93,0,0,0,32.93-23.4c10-9.08,18.19-19.23,22.44-29.72s4.53-21.33-1.38-31.81c-7.35-13.06-18.35-18.05-30.78-17.59s-26.29,6.36-39.38,15.09A156.94,156.94,0,0,0,320,419.36C310.62,431.12,304.28,443.08,303.13,452.63Z"/></g><g id="Group_17" data-name="Group 17"><path id="Path_10" data-name="Path 10" class="cls-2" d="M255.88,789.08q37.77-44.69,71.27-92.74c22.29-32,41-65,69.3-92.34,86.23-83.39,267.29-128.86,345.11-7,48.94,76.62,6.52,170.42,39.24,251.11,14.09,34.75,40.64,71.8,16.86,109.43C788.52,972,772.86,981,757,987.43c-74.24,30.15-163.58,18.82-242.2,22.3-81.54,3.6-166.29,7.21-245.44-16.39-28.52-8.5-55.82-24.59-72.09-49.52-38.55-59.07,16.29-105.43,52.15-147.18Q252.67,792.88,255.88,789.08Z"/><path id="Path_11" data-name="Path 11" class="cls-2" d="M716,614.89c45.69,65.84,6.3,151.47,28.13,218.64,9.33,28.72,29.6,58.66,9.09,89.3-8,11.8-21.15,19.27-34.46,24.7-21.52,8.78-44.43,13.71-67.8,16.74-44.35,5.75-90.21,4.14-132.74,8C455.67,978,389.06,982.89,326.09,968Q317,965.88,308,963.15c-24.59-7.45-47.92-21.57-61.58-43.21-31.39-49.78,13.7-89.31,44.26-124.36l5.65-6.45C316.42,766,335.94,742.55,354.18,718q2.69-3.63,5.34-7.28c19.72-27.2,36.2-55.64,60.2-79.57a238.78,238.78,0,0,1,20.21-17.93C517.42,552.09,651.16,521.5,716,614.89Z"/><path id="Path_12" data-name="Path 12" class="cls-2" d="M690.37,632.81c42.54,55.05,6,132.17,17,186.17,4.59,22.57,18.68,45.61,1.33,69.17-6.76,9.18-17.5,15.06-28.28,19.48C663,914.79,644.6,919.18,626,922.4c-35.28,6.12-70.94,7.05-104.48,12.43-50.72,8.15-106.84,14.66-159.76,2.27q-7.65-1.79-15.22-4.13c-20.65-6.4-40-18.54-51.07-36.92-24.26-40.43,11-73.26,36.39-101.52,1.6-1.79,3.22-3.57,4.84-5.35,17.32-19.11,34.6-37.95,50.52-58.14q2.36-3,4.66-6c17.13-22.41,31.35-46.26,51.1-66.79a217.48,217.48,0,0,1,16.57-15.56C522.07,589.92,632.15,557.48,690.37,632.81Z"/><path id="Path_13" data-name="Path 13" class="cls-2" d="M664.77,650.73c39.55,44.19,5.92,112.15,5.89,153.69,0,16.18,7.67,32.52-6.45,49.06-5.58,6.54-13.85,10.84-22.08,14.26-13.35,5.54-27.23,9.38-41,12.79-26.21,6.49-51.72,10.09-76.22,16.86-39,10.78-84.55,18.69-127.42,8.79q-6.21-1.42-12.34-3.39c-16.71-5.36-32.16-15.5-40.54-30.63-17.21-31,8.4-57.15,28.5-78.69,1.33-1.43,2.69-2.84,4-4.25,14.53-15.1,29.55-29.31,43.17-45.13,1.33-1.55,2.66-3.12,4-4.7,14.55-17.62,26.5-36.89,42-54,4.06-4.5,8.36-8.93,12.91-13.17C526.8,627.87,613.38,593.34,664.77,650.73Z"/><path id="Path_14" data-name="Path 14" class="cls-2" d="M639.17,668.65c36.83,33.13,7.21,91.18-5.23,121.21-3.93,9.5-3.38,19.4-14.21,28.94-4.42,3.9-10.21,6.63-15.9,9-9.25,3.92-18.62,7.22-27.64,10.82-17.13,6.85-32.5,13.45-48,21.28-27.35,13.86-62.27,22.73-95.1,15.31a93.7,93.7,0,0,1-9.44-2.64c-12.77-4.31-24.34-12.41-30-24.33-10.29-21.55,5.83-41,20.62-55.86,1.06-1.07,2.16-2.11,3.25-3.14,11.72-11.1,24.5-20.69,35.81-32.12,1.11-1.13,2.21-2.27,3.28-3.42,12-12.84,21.66-27.51,32.9-41.24,3-3.66,6.06-7.28,9.27-10.8C531.59,665.9,595,628.92,639.17,668.65Z"/><path id="Path_15" data-name="Path 15" class="cls-2" d="M518.42,731.21c-9.36,14.06-18.72,28.58-32,39-9.83,7.71-21.5,12.92-30.9,21.15s-16.48,21.11-12.74,33c3.43,11,14.86,17.52,26.07,19.94,22.77,4.94,48-3.83,62.76-21.83,6.87-8.36,11.63-18.49,19.69-25.71,12.66-11.34,31-13.47,46-21.48,28.29-15.13,50.85-67.27,16.34-88.73C577,663.84,536.52,704,518.42,731.21Z"/></g><g id="Group_18" data-name="Group 18"><path id="Path_16" data-name="Path 16" class="cls-2" d="M520.29,84.5c-11.89,16.89-17.49,36.67-11.39,59.1,9.6,35.31,40.61,59.54,70.87,77.05,46.79,27.07,105.16,38.63,107.71,103.71,1.29,32.83-16.46,62.3-21.55,94-4.94,30.77,7.43,59.19,31.52,78.9,62.42,51.07,165.11,66.93,214.64-8.83,27.45-42,34.13-92.86,46.46-140.45,13.66-52.72,24-106.75,24.6-161.41.64-56.72-15.24-113.51-62.81-148.47C878.9,7.68,823.68,1.89,773.87.67,719.2-.66,663.22,5.61,611.34,23.73,581,34.33,541.05,55,520.29,84.5Z"/><path id="Path_17" data-name="Path 17" class="cls-2" d="M560.11,100.82c-10.33,15.09-15.11,32.58-9.77,52.31,8.45,31.2,35.61,52.73,62.17,68.5,34.87,20.64,77,31.65,90.29,69.72A78.63,78.63,0,0,1,707,314.13c1,23.92-9.2,45.9-15.23,68.62a141.72,141.72,0,0,0-3.11,14.56c-4.16,27.18,6.63,52.33,27.78,69.84,54.1,44.5,143.17,58.29,186.48-7.17a174.87,174.87,0,0,0,17.75-35.61c10.6-28.36,15.85-59,23.35-88.37,11.9-46.53,20.78-94.31,21.14-142.6.37-50.1-13.63-100.23-55-131.44-36.15-27.33-84.36-33.32-128.22-35-48-1.77-97.14,3.71-142.48,19.87C612.74,56.34,578.08,74.72,560.11,100.82Z"/><path id="Path_18" data-name="Path 18" class="cls-2" d="M599.93,117.14c-8.81,13.26-12.73,28.5-8.14,45.52,7.3,27.08,30.6,45.93,53.46,60,29.94,18.26,66,28.48,77.52,61.51a69.8,69.8,0,0,1,3.64,19.78c1,20.75-7.56,39.91-12.55,59.67a123.91,123.91,0,0,0-2.56,12.66c-3.4,23.58,5.76,45.54,24,60.78,45.66,38.08,121.24,49.67,158.32-5.5a147.21,147.21,0,0,0,15.5-30.83c9.19-24.53,13.82-51.1,20.23-76.68,10.15-40.33,17.59-81.87,17.69-123.79.1-43.49-12-87-47.27-114.42-30.87-24.21-72.06-30.4-110-32.57-41.26-2.2-83.64,2.5-122.45,16.7C644.52,78.34,615,94.38,599.93,117.14Z"/><path id="Path_19" data-name="Path 19" class="cls-2" d="M639.74,133.45c-7.25,11.45-10.34,24.43-6.51,38.74,6.15,23,25.6,39.12,44.76,51.4,25,15.88,55,25.3,64.74,53.31a60.35,60.35,0,0,1,3.15,16.77c1,17.57-5.92,33.92-9.88,50.72a109,109,0,0,0-2,10.76c-2.62,20,4.92,38.71,20.28,51.72,37.3,31.57,99.34,41.05,130.17-3.84a121,121,0,0,0,13.25-26c7.76-20.69,11.78-43.19,17.11-65,8.4-34.14,14.39-69.43,14.23-105-.16-36.87-10.47-73.6-39.5-97.39C863.89,88.6,829.78,82,797.84,79.5,763.28,76.74,727.7,80.77,695.42,93,676.29,100.34,652,114.07,639.74,133.45Z"/><path id="Path_20" data-name="Path 20" class="cls-2" d="M679.57,149.77c-5.72,9.64-8,20.34-4.89,31.94,5,18.86,20.56,32.36,36.06,42.86,20,13.55,44,22.13,52,45.11a51.65,51.65,0,0,1,2.64,13.76c.91,14.4-4.28,27.92-7.2,41.76-.61,2.93-1.13,5.88-1.46,8.86a48.32,48.32,0,0,0,16.53,42.67c28.94,25,77.46,32.45,102-2.17a93.16,93.16,0,0,0,11-21.28c6.34-16.84,9.76-35.27,14-53.29,6.64-27.95,11.19-57,10.76-86.18-.42-30.25-8.87-60.3-31.73-80.36-20.37-17.88-47.44-24.68-73.43-27.68-27.85-3.22-56.66,0-82.37,10.34C708.06,122.31,689,133.76,679.57,149.77Z"/><path id="Path_21" data-name="Path 21" class="cls-2" d="M719.38,166.08c-4.15,7.85-5.59,16.27-3.26,25.16,3.84,14.74,15.55,25.55,27.36,34.3,15.08,11.18,33,19,39.19,36.91a43,43,0,0,1,2.14,10.76c.87,11.22-2.64,21.92-4.53,32.81-.4,2.3-.72,4.62-.91,7-1.09,12.8,3.25,25,12.79,33.61,20.6,18.5,55.63,23.88,73.84-.5a67,67,0,0,0,8.75-16.51c4.93-13,7.73-27.35,10.89-41.6,4.89-21.75,8-44.54,7.31-67.36-.7-23.63-7.28-47-24-63.34-15.08-14.75-35.12-21.75-55.15-25.23a109.87,109.87,0,0,0-62.34,7.16C739.83,144.3,726.07,153.47,719.38,166.08Z"/><path id="Path_22" data-name="Path 22" class="cls-2" d="M759.2,182.4a28.05,28.05,0,0,0-1.63,18.37c2.69,10.62,10.54,18.74,18.65,25.75,10.15,8.79,22,15.78,26.41,28.71a35.32,35.32,0,0,1,1.65,7.75c.83,8-1,15.93-1.86,23.85-.18,1.68-.31,3.37-.37,5.07-.31,9.2,2.45,18.19,9.05,24.55,12.32,11.87,33.94,15.39,45.69,1.16a41.44,41.44,0,0,0,6.49-11.73c3.51-9.16,5.7-19.44,7.77-29.91a192.07,192.07,0,0,0,3.86-48.55c-1-17-5.66-33.77-16.2-46.31-9.8-11.65-22.82-18.81-36.9-22.79a58.62,58.62,0,0,0-42.3,4C771.61,166.32,763.12,173.2,759.2,182.4Z"/><path id="Path_23" data-name="Path 23" class="cls-2" d="M822.6,248c2.08,6.27,1.72,13,2,19.64s1.26,13.58,5.48,18.66,12.58,7.19,17.53,2.83c2.06-1.81,3.24-4.4,4.25-6.95,11-28,7.92-80.67-22-97.59-13-7.35-27.65-.2-30.78,14.12C794.24,220.58,816.62,230,822.6,248Z"/></g><path id="Path_24" data-name="Path 24" class="cls-2" d="M269.12,701.67c-1.17,1.18-2.32,2.3-3.45,3.34-18.3,16.73-39.09,27.41-61.21,38.08a29.66,29.66,0,0,0-8.22,5.2c-4.07,4-4.14,9.9-3.7,15.24a115.88,115.88,0,0,0,2.31,15.18c1.56,7,4.68,14.88,11.53,17.11,8.05,2.62,15.88-3.91,22.28-9.44,31.77-27.4,60.8-56.82,78.9-95.6a25.68,25.68,0,0,0,2.77-9.08,6,6,0,0,0-1.22-4.53c-1.3-1.37-3.42-1.54-5.29-1.3C290,677.67,279,691.7,269.12,701.67Z"/><path id="Path_25" data-name="Path 25" class="cls-2" d="M619.46,458.44c-10.47,8.46-21.65,15.83-32.46,24-4.67,3.51-6.65,10.12-1.72,14.45,3,2.62,7.2,3.32,11.17,3.25,17.59-.3,32.85-1,49.92,4.84a235.67,235.67,0,0,1,61.92,31.56,191.12,191.12,0,0,1,26.24,22.8c12.66,13.28,29.64,45,51.27,22.65A17.38,17.38,0,0,0,791,570.45c.23-13.94-21.8-18.85-31.5-23.88-14.41-7.48-29-14.62-43.64-21.62-21-10-44.81-18.49-59.72-37.29a53.51,53.51,0,0,1-9.49-18c-1.91-6.47.2-15.58-3-21.3-3.79-6.81-11.53-1.18-15.2,2.24C625.55,453.37,622.54,456,619.46,458.44Z"/></g></g></g></svg>