<svg xmlns="http://www.w3.org/2000/svg" viewBox="0 0 21 132.16"><defs><style>.cls-1{fill:#efefef;}.cls-2{fill:none;}</style></defs><g id="Layer_2" data-name="Layer 2"><g id="Layer_1-2" data-name="Layer 1"><path class="cls-1" d="M10.13,65.92h0a.2.2,0,0,0,.08,0l0,0h0a.47.47,0,0,0,.38,0h0l0,0a.2.2,0,0,0,.08,0h0l10-10.75a.5.5,0,0,0-.74-.68L11,64.31V33.58a.5.5,0,0,0-1,0V64.31L.87,54.49a.51.51,0,0,0-.71,0,.51.51,0,0,0,0,.71Z"/><path class="cls-1" d="M20.13,120.57,11,130.39V99.66a.5.5,0,0,0-1,0v30.73L.87,120.57a.51.51,0,0,0-.71,0,.51.51,0,0,0,0,.71l10,10.75h0v0h0a.14.14,0,0,0,.08,0l0,0h0a.47.47,0,0,0,.38,0h0l0,0a.14.14,0,0,0,.08,0h0v0h0l10-10.75a.5.5,0,1,0-.74-.68Z"/><rect class="cls-2" x="3.54" y="66.08" width="13.92" height="33.08"/><rect class="cls-2" x="3.54" width="13.92" height="33.08"/></g></g></svg>