<svg xmlns="http://www.w3.org/2000/svg" viewBox="0 0 738.2 580.82"><defs><style>.cls-1{opacity:0.1;}.cls-2{fill:none;stroke:#efefef;stroke-miterlimit:10;}</style></defs><g id="Layer_2" data-name="Layer 2"><g id="Layer_1-2" data-name="Layer 1"><g id="Group_23" data-name="Group 23" class="cls-1"><path id="Path_26" data-name="Path 26" class="cls-2" d="M85.4,316.15q44.68-52.87,84.32-109.73c26.38-37.84,48.57-76.92,82-109.25C353.76-1.5,568-55.3,660.06,88.85,718,179.5,667.77,290.49,706.49,386c16.67,41.1,48.08,84.94,20,129.46-10.81,17.1-29.34,27.79-48.09,35.4-87.83,35.68-193.54,22.28-286.57,26.39-96.48,4.26-196.75,8.53-290.39-19.39-33.75-10.07-66-29.1-85.3-58.59-45.62-69.9,19.27-124.75,61.7-174.15Q81.6,320.64,85.4,316.15Z"/><path id="Path_27" data-name="Path 27" class="cls-2" d="M629.77,110.05c54.06,77.9,7.45,179.22,33.28,258.69,11,34,35,69.41,10.76,105.66-9.44,14-25,22.8-40.77,29.23-25.48,10.39-52.58,16.22-80.23,19.8-52.48,6.81-106.73,4.91-157.06,9.48-74,6.72-152.77,12.56-227.28-5q-10.78-2.55-21.44-5.77c-29.09-8.82-56.7-25.52-72.86-51.13C37,412.09,90.38,365.31,126.54,323.84q3.36-3.81,6.68-7.63c23.8-27.35,46.91-55.12,68.48-84.2,2.12-2.85,4.23-5.73,6.32-8.61,23.33-32.19,42.83-65.83,71.23-94.14A279.79,279.79,0,0,1,303.17,108C394.86,35.75,553.09-.44,629.77,110.05Z"/><path id="Path_28" data-name="Path 28" class="cls-2" d="M599.48,131.26c50.34,65.13,7.14,156.38,20.13,220.27,5.42,26.71,22.1,54,1.56,81.84-8,10.87-20.71,17.82-33.45,23.05-20.63,8.48-42.39,13.66-64.38,17.47-41.75,7.24-83.94,8.34-123.63,14.72-60,9.64-126.4,17.33-189,2.68q-9.06-2.12-18-4.88c-24.42-7.59-47.36-21.94-60.41-43.69-28.71-47.84,13-86.68,43.05-120.12,1.9-2.12,3.82-4.23,5.73-6.34,20.49-22.6,40.93-44.9,59.77-68.79q2.79-3.53,5.51-7.1c20.28-26.51,37.09-54.73,60.47-79a256.16,256.16,0,0,1,19.6-18.4C400.35,80.5,530.59,42.12,599.48,131.26Z"/><path id="Path_29" data-name="Path 29" class="cls-2" d="M569.19,152.46c46.8,52.28,7,132.7,7,181.84,0,19.15,9.07,38.47-7.63,58.05-6.6,7.74-16.4,12.82-26.13,16.87-15.79,6.55-32.22,11.1-48.55,15.13-31,7.68-61.19,11.94-90.18,20-46.16,12.75-100,22.11-150.77,10.4-4.89-1.13-9.77-2.47-14.59-4-19.77-6.34-38.06-18.33-48-36.23-20.36-36.73,9.95-67.63,33.73-93.11,1.58-1.7,3.18-3.36,4.78-5,17.19-17.86,35-34.68,51.08-53.4,1.58-1.83,3.15-3.69,4.7-5.56,17.22-20.86,31.35-43.65,49.7-63.92,4.8-5.33,9.89-10.57,15.28-15.58C406,125.41,508.4,84.55,569.19,152.46Z"/><path id="Path_30" data-name="Path 30" class="cls-2" d="M538.91,173.67c43.58,39.2,8.53,107.88-6.19,143.41-4.64,11.23-4,23-16.82,34.24-5.23,4.61-12.08,7.84-18.81,10.69-10.94,4.64-22,8.55-32.7,12.8-20.27,8.11-38.45,15.92-56.74,25.19-32.36,16.39-73.68,26.89-112.51,18.11A111,111,0,0,1,284,415c-15.11-5.1-28.8-14.68-35.53-28.78-12.18-25.5,6.9-48.53,24.4-66.1,1.26-1.26,2.55-2.5,3.84-3.72,13.88-13.13,29-24.47,42.37-38,1.32-1.33,2.61-2.68,3.89-4.05,14.17-15.18,25.62-32.55,38.92-48.8,3.53-4.32,7.17-8.61,11-12.77C411.62,170.4,486.63,126.65,538.91,173.67Z"/><path id="Path_31" data-name="Path 31" class="cls-2" d="M396,247.68c-11.08,16.64-22.15,33.82-37.89,46.16-11.63,9.12-25.44,15.29-36.56,25s-19.5,25-15.07,39.08c4.06,12.95,17.58,20.71,30.84,23.59,26.94,5.84,56.75-4.54,74.26-25.84,8.12-9.89,13.76-21.87,23.3-30.42,15-13.42,36.63-15.93,54.36-25.41,33.48-17.9,60.17-79.6,19.34-105C465.36,168,417.45,215.52,396,247.68Z"/></g></g></g></svg>