<svg xmlns="http://www.w3.org/2000/svg" xmlns:xlink="http://www.w3.org/1999/xlink"><symbol viewBox="0 0 8.8 19.1" id="facebook" xmlns="http://www.w3.org/2000/svg"><path d="M8.7.2v3S6.5 3 6 3.8c-.3.5-.2 1.9-.2 2.8h2.9c-.2 1.2-.4 1.9-.6 2.9H5.8v9.3H1.7V9.5H0V6.6h1.7c.1-2.1.1-4.3 1.2-5.4C4.1.1 5.2.2 8.7.2z"/></symbol><symbol viewBox="0 0 23.5 19.1" id="twitter" xmlns="http://www.w3.org/2000/svg"><path d="M16 0c1.9 0 2.9.6 3.8 1.5.8-.1 1.9-.5 2.5-.8l.6-.3c-.4 1-.8 1.7-1.6 2.3-.2 0-.3.2-.5.3 1 0 1.9-.5 2.7-.7-.4.7-1 1.4-1.6 1.9-.3.2-.5.4-.8.6 0 1.1 0 2.2-.2 3.1-1.2 5.4-4.4 9.1-9.4 10.7-1.8.6-4.7.8-6.8.3-1-.3-2-.5-2.8-.9-.5-.2-.9-.4-1.4-.7-.2-.2-.4-.3-.5-.4.5 0 1 .1 1.5.1.5-.1.9-.1 1.4-.2 1.1-.2 2.1-.6 2.9-1 .4-.2 1-.5 1.3-.9-.5 0-1-.1-1.4-.3-1.6-.6-2.5-1.6-3.1-3.1.5.1 1.8.2 2.2-.1-.6 0-1.2-.4-1.6-.6C1.9 10 .9 8.7.9 6.7c.2.1.3.2.5.2.3.1.6.2 1 .3.2 0 .5.1.7.1-.3-.3-.7-.5-.9-.8C1.4 5.5.6 4 1.1 2.1c.1-.5.3-.9.5-1.3.1.2.3.3.4.5.4.5.9 1 1.4 1.4 1.9 1.4 3.5 2.3 6 2.9.6.2 1.4.3 2.2.3-.2-.6-.1-1.7 0-2.3C12 2.1 13 1 14.3.4c.3-.1.7-.2 1.1-.3.2-.1.4-.1.6-.1z"/></symbol></svg>